<?xml version="1.0" encoding="UTF-8" standalone="no"?>
<!DOCTYPE svg PUBLIC "-//W3C//DTD SVG 1.1//EN" "http://www.w3.org/Graphics/SVG/1.1/DTD/svg11.dtd">
<svg xmlns="http://www.w3.org/2000/svg" version="1.1" viewBox="0.00 0.00 517.00 237.00">
<g stroke-width="2.00" fill="none" stroke-linecap="butt">
<path stroke="#c2672e" vector-effect="non-scaling-stroke" d="
  M 284.86 56.32
  C 285.76 55.91 286.17 54.88 286.09 53.22
  C 286.06 52.57 286.85 52.22 287.31 52.68
  L 293.82 59.20
  C 293.88 59.25 293.95 59.27 294.02 59.24
  C 294.10 59.21 294.18 59.19 294.27 59.16
  C 294.37 59.13 294.39 59.00 294.32 58.93
  L 284.22 48.96
  C 284.17 48.92 284.10 48.93 284.08 48.99
  C 284.05 49.08 284.03 49.16 284.00 49.25
  C 283.99 49.29 284.01 49.35 284.08 49.42
  L 285.85 51.30
  C 286.10 51.56 286.12 51.96 285.92 52.26
  C 285.06 53.50 284.53 54.72 284.34 55.91"
/>
<path stroke="#543a91" vector-effect="non-scaling-stroke" d="
  M 267.02 85.10
  L 258.85 84.63"
/>
<path stroke="#eb8a1b" vector-effect="non-scaling-stroke" d="
  M 366.40 94.35
  L 364.05 93.76"
/>
<path stroke="#c17711" vector-effect="non-scaling-stroke" d="
  M 364.05 93.76
  L 359.40 92.97"
/>
<path stroke="#eb8a1b" vector-effect="non-scaling-stroke" d="
  M 359.40 92.97
  C 349.15 91.21 339.08 90.48 329.17 90.77"
/>
<path stroke="#ea7f1a" vector-effect="non-scaling-stroke" d="
  M 329.17 90.77
  C 317.56 91.18 306.92 94.17 297.26 99.75
  C 295.07 101.01 293.79 102.85 291.71 104.45"
/>
<path stroke="#798a71" vector-effect="non-scaling-stroke" d="
  M 291.71 104.45
  L 291.42 102.32"
/>
<path stroke="#7b527d" vector-effect="non-scaling-stroke" d="
  M 241.86 90.75
  L 240.20 95.75
  C 240.10 96.05 240.41 96.32 240.70 96.19
  C 242.48 95.38 243.67 94.07 244.26 92.25
  C 244.36 91.94 244.57 91.77 244.88 91.72
  C 249.47 91.01 253.43 91.53 257.34 88.68
  C 257.57 88.51 257.88 88.48 258.15 88.60
  C 260.57 89.73 263.03 89.79 265.54 88.78
  C 265.87 88.65 266.19 88.67 266.50 88.84
  L 269.82 90.67
  C 270.03 90.78 270.27 90.83 270.50 90.80
  L 273.47 90.45
  C 273.75 90.42 273.98 90.51 274.17 90.73
  C 276.03 92.91 278.30 94.49 280.97 95.47
  C 281.31 95.59 281.57 95.85 281.70 96.19
  C 282.61 98.61 284.20 100.43 286.48 101.66
  C 286.75 101.81 286.95 102.06 287.01 102.36
  L 287.74 105.84
  C 287.96 106.86 289.06 107.43 290.02 107.02
  C 290.91 106.63 291.48 105.78 291.71 104.45"
/>
<path stroke="#ed5127" vector-effect="non-scaling-stroke" d="
  M 329.17 90.77
  L 337.52 97.70"
/>
<path stroke="#ea7f1a" vector-effect="non-scaling-stroke" d="
  M 337.52 97.70
  C 323.09 97.25 307.60 98.90 296.75 109.25"
/>
<path stroke="#b53573" vector-effect="non-scaling-stroke" d="
  M 296.75 109.25
  C 296.04 109.34 295.81 109.97 296.07 111.12"
/>
<path stroke="#f17b36" vector-effect="non-scaling-stroke" d="
  M 295.86 111.37
  C 294.25 111.00 293.57 111.70 293.81 113.49"
/>
<path stroke="#7b527d" vector-effect="non-scaling-stroke" d="
  M 293.81 113.49
  L 291.68 113.80
  C 291.28 113.86 291.11 114.09 291.16 114.50
  C 291.50 117.23 291.07 119.84 289.87 122.35
  C 289.73 122.65 289.79 123.01 290.02 123.24
  L 291.68 124.90
  C 291.87 125.09 291.91 125.38 291.79 125.62
  C 290.87 127.49 289.57 129.04 287.88 130.28
  C 287.63 130.46 287.47 130.74 287.44 131.05
  C 287.20 133.57 285.90 135.31 283.53 136.26
  C 283.21 136.39 282.99 136.67 282.93 137.00
  C 282.45 139.85 280.80 141.29 277.98 141.30
  C 277.72 141.31 277.47 141.42 277.30 141.61
  L 274.53 144.66
  C 274.40 144.80 274.23 144.89 274.04 144.90
  L 269.92 145.16
  C 269.51 145.19 269.15 145.33 268.84 145.58
  C 267.90 146.33 266.87 146.90 265.74 147.29
  C 265.41 147.41 265.04 147.39 264.72 147.24
  C 261.80 145.86 260.35 147.04 257.46 147.31
  C 257.17 147.34 256.88 147.22 256.68 147.01
  C 254.89 145.14 252.71 144.60 250.16 145.39
  C 249.79 145.50 249.39 145.38 249.16 145.08
  L 246.76 142.02
  C 246.51 141.70 246.19 141.51 245.78 141.46
  L 243.16 141.10
  C 242.95 141.07 242.77 140.95 242.67 140.77
  L 240.49 136.67
  C 240.40 136.50 240.25 136.38 240.06 136.32
  L 236.97 135.44"
/>
<path stroke="#9c6b5a" vector-effect="non-scaling-stroke" d="
  M 236.97 135.44
  L 231.36 130.30"
/>
<path stroke="#ed5127" vector-effect="non-scaling-stroke" d="
  M 151.74 134.81
  C 153.79 133.38 156.10 132.92 158.67 133.43
  C 163.20 134.33 167.97 133.81 172.60 133.90
  C 172.90 133.91 173.14 133.80 173.33 133.57
  L 178.06 127.79
  C 178.27 127.54 178.16 127.15 177.85 127.04
  C 177.61 126.95 177.34 126.97 177.04 127.12"
/>
<path stroke="#c52e3a" vector-effect="non-scaling-stroke" d="
  M 177.04 127.12
  L 153.62 121.06"
/>
<path stroke="#f17b36" vector-effect="non-scaling-stroke" d="
  M 160.42 111.34
  L 164.71 110.19
  C 165.06 110.10 165.14 109.89 164.95 109.58
  C 163.79 107.65 162.43 106.68 160.87 106.67"
/>
<path stroke="#c44a1e" vector-effect="non-scaling-stroke" d="
  M 364.05 93.76
  C 362.06 95.25 360.75 97.36 360.12 100.10"
/>
<path stroke="#c17711" vector-effect="non-scaling-stroke" d="
  M 360.12 100.10
  C 358.89 99.56 357.65 99.37 356.39 99.54"
/>
<path stroke="#c44a1e" vector-effect="non-scaling-stroke" d="
  M 376.30 96.39
  C 373.72 97.26 371.99 99.11 371.11 101.94"
/>
<path stroke="#eb8a1b" vector-effect="non-scaling-stroke" d="
  M 367.31 101.25
  L 360.12 100.10"
/>
<path stroke="#c44a1e" vector-effect="non-scaling-stroke" d="
  M 359.40 92.97
  C 358.09 95.14 356.26 96.85 356.39 99.54"
/>
<path stroke="#eb8a1b" vector-effect="non-scaling-stroke" d="
  M 356.39 99.54
  C 349.96 98.41 343.67 97.80 337.52 97.70"
/>
<path stroke="#aa596c" vector-effect="non-scaling-stroke" d="
  M 372.00 109.09
  C 371.40 109.44 370.92 109.61 370.57 109.62"
/>
<path stroke="#b26e68" vector-effect="non-scaling-stroke" d="
  M 366.94 109.10
  C 357.09 107.08 347.28 106.16 337.51 106.35
  C 326.41 106.56 314.61 107.89 302.10 110.32"
/>
<path stroke="#c44a1e" vector-effect="non-scaling-stroke" d="
  M 163.57 126.96
  C 162.97 127.53 162.36 127.92 161.73 128.13
  C 161.40 128.24 161.13 128.15 160.94 127.87
  C 160.11 126.68 158.95 126.24 157.47 126.54
  C 157.07 126.62 156.92 126.86 157.01 127.26
  C 157.47 129.19 158.65 130.49 160.56 131.16
  C 160.88 131.28 161.19 131.26 161.49 131.09
  L 163.84 129.83
  C 164.13 129.68 164.41 129.68 164.68 129.84
  C 166.86 131.14 168.85 130.62 170.65 128.27"
/>
<path stroke="#b26e68" vector-effect="non-scaling-stroke" d="
  M 366.69 107.64
  C 345.93 104.15 330.60 105.40 308.11 107.73
  C 304.97 108.06 300.67 109.17 296.75 109.25"
/>
<path stroke="#e69f2f" vector-effect="non-scaling-stroke" d="
  M 147.21 114.67
  C 144.03 112.20 142.17 113.05 141.62 117.20"
/>
<path stroke="#e69f2f" vector-effect="non-scaling-stroke" d="
  M 140.20 117.33
  L 139.81 116.10
  C 139.69 115.74 139.44 115.55 139.06 115.52
  C 137.30 115.41 136.28 116.66 136.01 119.29"
/>
<path stroke="#f28638" vector-effect="non-scaling-stroke" d="
  M 135.23 119.31
  C 134.88 119.27 134.55 119.09 134.26 118.76
  C 133.37 117.76 133.90 117.04 132.36 116.20"
/>
<path stroke="#c6393b" vector-effect="non-scaling-stroke" d="
  M 177.04 127.12
  L 170.65 128.27"
/>
<path stroke="#9c2731" vector-effect="non-scaling-stroke" d="
  M 170.65 128.27
  C 168.70 127.38 166.34 126.94 163.57 126.96"
/>
<path stroke="#c6393b" vector-effect="non-scaling-stroke" d="
  M 163.57 126.96
  C 159.98 125.17 156.16 123.91 152.09 123.17"
/>
<path stroke="#e69f2f" vector-effect="non-scaling-stroke" d="
  M 318.93 122.68
  L 321.79 119.71
  C 322.44 119.04 322.33 118.88 321.47 119.24
  C 320.00 119.86 318.78 121.05 317.82 122.82"
/>
<path stroke="#80878e" vector-effect="non-scaling-stroke" d="
  M 295.61 115.66
  L 293.81 113.49"
/>
<path stroke="#707676" vector-effect="non-scaling-stroke" d="
  M 287.91 138.74
  C 285.78 141.55 283.37 143.85 280.66 145.63"
/>
<path stroke="#707676" vector-effect="non-scaling-stroke" d="
  M 273.71 150.00
  L 273.19 149.94"
/>
<path stroke="#2b76b1" vector-effect="non-scaling-stroke" d="
  M 257.05 151.39
  C 256.62 151.48 256.13 151.44 255.58 151.27"
/>
<path stroke="#2b76b1" vector-effect="non-scaling-stroke" d="
  M 249.31 149.33
  C 245.30 147.25 241.75 144.87 238.66 142.20"
/>
<path stroke="#2b76b1" vector-effect="non-scaling-stroke" d="
  M 234.85 137.19
  L 234.33 136.39
  C 234.12 136.06 234.21 135.87 234.60 135.81
  L 236.97 135.44"
/>
<path stroke="#524a74" vector-effect="non-scaling-stroke" d="
  M 383.27 111.81
  C 382.32 111.99 381.99 112.28 382.30 112.68"
/>
<path stroke="#c8742d" vector-effect="non-scaling-stroke" d="
  M 376.32 111.85
  C 376.99 110.64 377.41 109.14 377.59 107.37"
/>
<path stroke="#dfa313" vector-effect="non-scaling-stroke" d="
  M 369.52 110.70
  C 369.80 110.89 369.81 111.36 369.54 112.09
  C 369.27 112.86 368.16 112.79 367.97 112.00
  C 367.95 111.93 367.90 111.84 367.82 111.75
  C 367.61 111.50 367.35 111.39 367.03 111.42
  C 364.80 111.66 362.78 112.40 360.99 113.65
  C 360.93 113.70 360.86 113.73 360.79 113.74
  L 353.70 115.26
  C 352.98 115.41 352.93 115.70 353.54 116.11
  C 356.91 118.35 361.45 116.51 363.84 113.64
  C 364.05 113.38 364.43 113.35 364.68 113.57
  C 366.71 115.34 368.73 115.48 370.74 114.00"
/>
<path stroke="#efb42b" vector-effect="non-scaling-stroke" d="
  M 307.00 122.54
  L 308.28 121.17
  C 308.50 120.93 308.76 120.88 309.05 121.02
  L 309.75 121.36
  C 310.05 121.50 310.36 121.55 310.68 121.52
  C 312.46 121.34 314.13 121.65 315.69 122.46
  C 316.00 122.62 316.33 122.71 316.68 122.74
  L 317.82 122.82"
/>
<path stroke="#dfa313" vector-effect="non-scaling-stroke" d="
  M 317.82 122.82
  L 318.93 122.68"
/>
<path stroke="#efb42b" vector-effect="non-scaling-stroke" d="
  M 318.93 122.68
  C 321.45 124.13 324.33 124.61 327.57 124.11
  C 334.02 123.10 340.55 122.50 347.16 122.31
  C 347.96 122.28 348.36 121.33 347.82 120.74
  L 344.98 117.68
  C 344.77 117.44 344.43 117.36 344.13 117.47
  C 340.60 118.78 336.94 119.28 333.17 118.95
  C 332.75 118.92 332.43 118.72 332.20 118.36
  L 331.06 116.58
  C 330.88 116.31 330.55 116.18 330.23 116.26
  C 329.51 116.46 329.01 116.47 328.74 116.28"
/>
<path stroke="#c44a1e" vector-effect="non-scaling-stroke" d="
  M 150.45 125.74
  C 150.02 126.36 149.94 127.11 150.19 128.00
  C 150.35 128.59 150.64 128.66 151.05 128.21
  L 152.93 126.17
  C 153.11 125.98 153.39 125.93 153.62 126.05
  L 154.33 126.43
  C 154.65 126.59 154.74 127.00 154.52 127.28
  L 150.20 132.86"
/>
<path stroke="#c44a1e" vector-effect="non-scaling-stroke" d="
  M 138.58 130.83
  C 139.12 129.44 139.30 128.04 139.11 126.63
  C 139.03 126.00 138.21 125.81 137.86 126.34
  C 137.09 127.49 136.90 128.89 137.29 130.53"
/>
<path stroke="#c44a1e" vector-effect="non-scaling-stroke" d="
  M 130.03 122.27
  C 130.04 122.38 130.03 122.47 129.99 122.56
  C 129.94 122.67 129.85 122.72 129.72 122.70
  L 126.78 122.29
  C 126.53 122.26 126.29 122.17 126.06 122.04
  C 122.93 120.22 120.38 124.41 119.08 126.93"
/>
<path stroke="#e27520" vector-effect="non-scaling-stroke" d="
  M 111.70 128.38
  C 110.95 126.73 109.71 125.73 107.98 125.37"
/>
<path stroke="#c44a1e" vector-effect="non-scaling-stroke" d="
  M 107.98 125.37
  C 109.40 122.23 111.07 120.19 112.99 119.26"
/>
<path stroke="#c44a1e" vector-effect="non-scaling-stroke" d="
  M 115.98 120.07
  C 115.75 122.02 116.35 123.24 117.77 123.72
  C 118.10 123.83 118.46 123.73 118.68 123.46
  L 120.95 120.67"
/>
<path stroke="#c44a1e" vector-effect="non-scaling-stroke" d="
  M 131.70 122.76
  C 129.71 125.18 131.23 127.06 130.18 128.95"
/>
<path stroke="#c44a1e" vector-effect="non-scaling-stroke" d="
  M 125.64 128.06
  C 126.62 126.82 126.65 125.72 125.73 124.77
  C 125.24 124.27 124.39 124.60 124.38 125.30
  L 124.32 127.97"
/>
<path stroke="#c44a1e" vector-effect="non-scaling-stroke" d="
  M 132.99 123.02
  C 133.11 125.21 132.68 127.32 131.69 129.36"
/>
<path stroke="#80878e" vector-effect="non-scaling-stroke" d="
  M 137.37 113.80
  C 137.08 114.57 136.45 114.75 135.48 114.34"
/>
<path stroke="#f4906d" vector-effect="non-scaling-stroke" d="
  M 496.91 107.37
  C 495.48 108.99 494.51 110.61 494.02 112.23
  C 492.87 116.03 491.37 117.95 488.52 120.33"
/>
<path stroke="#c44a1e" vector-effect="non-scaling-stroke" d="
  M 402.36 108.73
  C 404.54 106.79 405.73 104.78 405.94 102.70"
/>
<path stroke="#c44a1e" vector-effect="non-scaling-stroke" d="
  M 407.35 102.82
  C 409.25 105.99 410.68 108.88 414.70 107.07
  C 417.71 105.73 420.33 109.57 422.94 104.56"
/>
<path stroke="#f28638" vector-effect="non-scaling-stroke" d="
  M 463.57 101.14
  L 469.38 98.72"
/>
<path stroke="#c8742d" vector-effect="non-scaling-stroke" d="
  M 403.26 102.06
  C 403.23 102.46 403.08 102.76 402.80 102.96
  C 402.45 103.22 401.94 103.06 401.80 102.64
  C 401.43 101.57 400.70 100.87 399.61 100.54
  C 399.32 100.45 399.02 100.46 398.73 100.58
  C 397.02 101.27 395.40 101.19 393.88 100.34"
/>
<path stroke="#e69f2f" vector-effect="non-scaling-stroke" d="
  M 374.55 112.52
  L 374.23 108.21"
/>
<path stroke="#e69f2f" vector-effect="non-scaling-stroke" d="
  M 103.61 130.77
  C 101.32 130.08 99.74 129.30 98.85 128.43"
/>
<path stroke="#b86315" vector-effect="non-scaling-stroke" d="
  M 107.98 125.37
  C 107.53 125.31 107.13 125.43 106.77 125.74"
/>
<path stroke="#f4906d" vector-effect="non-scaling-stroke" d="
  M 492.40 90.70
  C 492.92 86.28 485.34 87.97 482.84 88.10"
/>
<path stroke="#c44a1e" vector-effect="non-scaling-stroke" d="
  M 106.81 118.79
  C 105.93 122.17 104.66 124.12 102.99 124.63"
/>
<path stroke="#f28638" vector-effect="non-scaling-stroke" d="
  M 56.49 129.98
  C 55.30 130.23 53.78 131.18 51.93 132.84"
/>
<path stroke="#f4906d" vector-effect="non-scaling-stroke" d="
  M 42.81 141.46
  C 41.02 139.13 39.38 138.80 37.89 140.46
  C 37.60 140.79 37.11 140.85 36.74 140.60
  C 36.38 140.36 36.24 139.89 36.43 139.49
  C 37.06 138.14 37.00 137.35 36.26 137.10"
/>
<path stroke="#f28638" vector-effect="non-scaling-stroke" d="
  M 43.29 129.73
  L 47.01 127.12"
/>
<path stroke="#f4906d" vector-effect="non-scaling-stroke" d="
  M 496.43 88.04
  C 495.96 88.19 495.74 88.19 495.79 88.04
  C 495.88 87.76 496.06 87.55 496.32 87.41
  C 496.53 87.29 496.52 87.24 496.28 87.25
  C 496.17 87.25 496.05 87.25 495.94 87.24
  C 495.72 87.22 495.49 87.29 495.31 87.43
  C 494.64 87.94 493.90 88.22 493.09 88.26
  C 492.72 88.28 492.47 88.12 492.33 87.77
  L 491.94 86.77"
/>
<path stroke="#f4906d" vector-effect="non-scaling-stroke" d="
  M 491.22 86.18
  C 489.69 85.41 488.29 85.45 487.03 86.29
  C 486.64 86.55 486.44 86.44 486.43 85.97
  C 486.42 85.36 486.75 84.81 487.43 84.33
  C 487.56 84.24 487.63 84.10 487.64 83.94
  L 487.79 76.60
  C 487.80 76.29 487.65 76.10 487.34 76.04
  L 485.58 75.71
  C 485.15 75.63 484.73 75.90 484.62 76.33
  L 483.88 79.23
  C 483.79 79.57 483.31 79.55 483.24 79.21
  C 482.97 77.88 483.22 76.66 484.00 75.53
  C 484.22 75.21 484.17 74.94 483.86 74.71
  L 483.14 74.19"
/>
<path stroke="#eb8a1b" vector-effect="non-scaling-stroke" d="
  M 483.14 74.19
  C 483.45 73.37 483.99 72.74 484.76 72.31"
/>
<path stroke="#f1be60" vector-effect="non-scaling-stroke" d="
  M 483.14 74.19
  C 482.40 75.80 481.41 76.56 480.17 76.48"
/>
<path stroke="#f4906d" vector-effect="non-scaling-stroke" d="
  M 41.03 155.28
  C 40.72 155.04 40.52 154.60 40.43 153.97
  C 40.38 153.62 40.21 153.37 39.90 153.21
  C 39.10 152.79 38.81 152.24 39.04 151.55"
/>
<path stroke="#f4906d" vector-effect="non-scaling-stroke" d="
  M 40.42 149.41
  L 39.04 149.17
  C 38.63 149.10 38.38 148.69 38.52 148.30
  L 40.91 141.40
  C 41.08 140.92 40.56 140.48 40.11 140.73
  L 37.81 142.00
  C 37.57 142.13 37.28 142.14 37.03 142.02
  C 36.00 141.52 35.21 141.45 34.65 141.81"
/>
<path stroke="#f4906d" vector-effect="non-scaling-stroke" d="
  M 31.03 143.52
  C 31.14 144.43 30.51 144.73 29.15 144.40
  C 28.78 144.31 28.57 143.91 28.71 143.55
  L 29.29 142.10
  C 29.46 141.69 29.16 141.25 28.72 141.25
  L 28.47 141.25
  C 28.16 141.25 27.86 141.40 27.68 141.66
  C 27.13 142.43 26.42 142.84 25.55 142.89"
/>
<path stroke="#f17b36" vector-effect="non-scaling-stroke" d="
  M 34.20 120.89
  L 37.41 125.81"
/>
<path stroke="#ed5127" vector-effect="non-scaling-stroke" d="
  M 23.06 107.43
  C 22.45 107.69 21.76 107.58 21.01 107.09
  C 20.54 106.78 20.25 106.90 20.15 107.46
  C 20.00 108.30 20.38 109.22 21.30 110.22
  C 24.07 113.22 27.01 116.11 30.11 118.89
  C 30.36 119.11 30.40 119.48 30.21 119.75
  C 29.74 120.44 29.09 120.97 28.26 121.35"
/>
<path stroke="#f3856c" vector-effect="non-scaling-stroke" d="
  M 232.51 99.74
  C 232.14 100.38 232.24 100.83 232.79 101.08"
/>
<path stroke="#c52e3a" vector-effect="non-scaling-stroke" d="
  M 232.79 101.08
  L 229.18 108.66
  C 229.00 109.03 229.44 109.39 229.77 109.14
  C 232.07 107.39 233.92 108.48 235.78 107.48
  C 236.21 107.25 236.46 106.89 236.53 106.41
  C 236.59 105.97 236.40 105.80 235.97 105.91
  L 234.88 106.17
  C 234.52 106.25 234.17 106.00 234.14 105.63
  L 234.00 103.60
  C 233.99 103.48 234.02 103.36 234.10 103.26
  C 235.45 101.51 235.74 99.84 234.99 98.24"
/>
<path stroke="#f3856c" vector-effect="non-scaling-stroke" d="
  M 234.99 98.24
  L 235.22 94.21
  C 235.24 93.86 235.10 93.61 234.79 93.46
  L 231.82 91.90"
/>
<path stroke="#ed5127" vector-effect="non-scaling-stroke" d="
  M 217.99 80.76
  C 217.64 77.43 213.27 73.80 210.97 71.55
  C 210.69 71.28 210.68 70.83 210.94 70.55
  L 216.20 64.80
  C 216.29 64.69 216.32 64.57 216.27 64.43
  C 216.24 64.34 216.16 64.28 216.04 64.25
  C 216.02 64.24 216.00 64.25 215.98 64.26
  C 214.18 66.29 212.27 68.20 210.24 70.00
  C 209.92 70.28 209.43 70.26 209.13 69.96
  L 186.63 47.47
  C 186.29 47.14 186.30 46.58 186.65 46.25
  L 191.94 41.25
  C 192.03 41.16 192.05 41.02 191.99 40.92
  C 191.92 40.80 191.82 40.74 191.70 40.73
  C 191.59 40.72 191.47 40.77 191.33 40.89
  C 189.55 42.41 188.01 43.82 186.72 45.13
  C 186.02 45.83 184.87 45.80 184.21 45.06
  C 183.59 44.36 182.89 43.70 182.10 43.07
  C 181.96 42.96 181.75 42.97 181.62 43.11
  C 181.50 43.25 181.51 43.46 181.64 43.59
  L 208.98 70.62
  C 209.25 70.89 209.25 71.32 208.98 71.58
  L 204.81 75.56
  C 204.66 75.71 204.67 75.85 204.84 75.96
  C 204.96 76.03 205.08 76.02 205.20 75.93
  C 206.65 74.82 208.02 73.59 209.33 72.24
  C 209.67 71.88 209.99 71.90 210.28 72.31
  L 211.48 74.00
  C 211.57 74.13 211.54 74.21 211.38 74.22
  C 211.25 74.24 211.14 74.29 211.03 74.36
  C 210.90 74.46 210.81 74.62 210.77 74.85
  C 210.60 75.81 210.83 76.21 211.46 76.04"
/>
<path stroke="#cc6d80" vector-effect="non-scaling-stroke" d="
  M 234.99 98.24
  L 232.79 101.08"
/>
<path stroke="#b53573" vector-effect="non-scaling-stroke" d="
  M 265.35 99.57
  C 261.38 96.66 260.65 98.59 257.54 99.88
  C 255.97 100.53 254.29 100.14 252.55 100.26
  C 252.20 100.29 251.90 100.42 251.65 100.66
  C 250.36 101.89 249.52 103.34 249.13 105.00
  C 249.03 105.41 248.78 105.68 248.39 105.81
  L 245.14 106.91
  C 244.81 107.02 244.62 107.25 244.57 107.60
  L 243.61 113.96
  C 243.56 114.32 243.41 114.64 243.18 114.92
  C 242.43 115.83 241.87 116.84 241.48 117.96
  C 241.35 118.34 241.44 118.75 241.71 119.04
  L 244.21 121.70
  C 244.44 121.95 244.56 122.28 244.54 122.61
  L 244.22 128.17
  C 244.20 128.47 244.38 128.75 244.66 128.85
  C 247.50 129.88 249.52 131.77 250.73 134.52
  C 251.12 135.41 252.06 135.93 253.02 135.79
  C 256.15 135.34 258.88 136.16 261.22 138.26
  C 261.48 138.50 261.87 138.53 262.17 138.35
  L 266.07 135.94
  C 266.27 135.82 266.50 135.75 266.73 135.75
  L 271.50 135.75
  C 272.15 135.75 272.72 135.33 272.92 134.71
  C 273.91 131.60 277.84 129.51 277.08 126.50
  C 276.97 126.05 276.81 126.03 276.61 126.46
  L 275.66 128.48
  C 275.58 128.65 275.41 128.75 275.23 128.75
  C 275.12 128.75 275.02 128.75 274.92 128.74
  C 274.57 128.73 274.44 128.56 274.54 128.22
  L 275.64 124.40
  C 275.70 124.21 275.66 124.04 275.51 123.89
  L 275.31 123.69
  C 275.15 123.53 275.10 123.29 275.17 123.08
  C 275.43 122.26 275.72 122.04 276.05 122.43
  C 276.24 122.66 276.56 122.70 276.80 122.53
  C 278.64 121.20 280.12 119.55 281.25 117.60"
/>
<path stroke="#ed5127" vector-effect="non-scaling-stroke" d="
  M 281.25 117.60
  C 281.68 116.52 282.32 115.53 283.15 114.64
  C 285.16 112.50 287.88 113.28 289.37 109.64
  C 289.45 109.43 289.43 109.24 289.30 109.05
  L 287.93 107.14
  C 287.79 106.94 287.52 106.88 287.30 106.99
  L 286.24 107.52
  C 285.85 107.72 285.58 107.62 285.42 107.21
  C 283.97 103.55 276.83 97.77 273.34 94.77
  C 273.09 94.55 272.86 94.57 272.65 94.82
  C 271.34 96.40 270.48 98.18 270.09 100.17
  C 270.02 100.51 269.82 100.69 269.48 100.72
  C 268.01 100.83 266.63 100.45 265.35 99.57"
/>
<path stroke="#b64075" vector-effect="non-scaling-stroke" d="
  M 281.25 117.60
  C 275.35 117.33 275.48 118.99 273.39 123.53"
/>
<path stroke="#f06b79" vector-effect="non-scaling-stroke" d="
  M 273.39 123.53
  C 272.00 123.70 271.37 123.36 271.50 122.50
  C 271.81 120.47 272.83 118.10 274.56 115.41"
/>
<path stroke="#b64075" vector-effect="non-scaling-stroke" d="
  M 274.56 115.41
  C 277.53 114.44 279.23 112.44 279.65 109.40
  C 279.77 108.52 279.16 107.71 278.29 107.58
  C 274.79 107.05 271.36 106.35 267.99 105.48
  C 265.17 104.75 264.29 102.78 265.35 99.57"
/>
<path stroke="#b74fc6" vector-effect="non-scaling-stroke" d="
  M 274.56 115.41
  C 271.71 107.64 266.78 104.34 259.76 105.53
  C 245.87 107.88 245.75 127.69 259.07 130.44
  C 265.19 131.70 269.96 129.40 273.39 123.53"
/>
<path stroke="#c52e3a" vector-effect="non-scaling-stroke" d="
  M 238.4965 100.7508
  C 238.83 101.06 239.70 100.66 240.4397 99.8692
  C 241.18 99.07 241.51 98.18 241.1835 97.8692
  C 240.85 97.56 239.98 97.96 239.2403 98.7508
  C 238.50 99.55 238.17 100.44 238.4965 100.7508"
/>
<path stroke="#f17b36" vector-effect="non-scaling-stroke" d="
  M 189.71 103.74
  C 185.05 104.06 181.41 103.25 177.23 104.16
  C 173.13 105.05 168.62 104.52 164.14 105.55
  C 163.82 105.63 163.69 106.02 163.92 106.26
  L 166.83 109.30
  C 166.99 109.47 167.24 109.55 167.47 109.49
  C 173.53 108.04 179.68 107.72 185.93 108.55
  C 186.30 108.60 186.67 108.47 186.92 108.19
  L 190.13 104.61
  C 190.45 104.26 190.18 103.71 189.71 103.74"
/>
<path stroke="#f17b36" vector-effect="non-scaling-stroke" d="
  M 218.83 118.72
  C 219.93 118.80 220.93 118.09 221.82 116.59"
/>
<path stroke="#f17b36" vector-effect="non-scaling-stroke" d="
  M 219.95 114.85
  C 211.06 108.58 202.64 107.27 192.61 104.28
  C 192.28 104.18 191.92 104.28 191.68 104.53
  L 188.68 107.71
  C 188.44 107.96 188.59 108.38 188.94 108.42
  C 192.76 108.86 196.24 108.65 199.82 109.98
  C 204.45 111.70 208.99 113.49 213.44 115.35"
/>
<path stroke="#c33f1c" vector-effect="non-scaling-stroke" d="
  M 232.42 115.86
  L 230.21 118.78
  C 229.97 119.10 230.05 119.24 230.45 119.20
  C 232.46 119.01 233.35 116.26 234.43 114.68
  C 234.70 114.28 234.60 114.05 234.11 114.00
  C 232.18 113.77 230.63 112.85 229.46 111.24
  C 229.35 111.08 229.14 111.01 228.95 111.07
  L 228.19 111.30
  C 227.96 111.37 227.91 111.68 228.10 111.83
  L 232.32 115.15
  C 232.59 115.36 232.62 115.59 232.42 115.86"
/>
</g>
<path fill="#9d164e" d="
  M 284.86 56.32
  C 285.76 55.91 286.17 54.88 286.09 53.22
  C 286.06 52.57 286.85 52.22 287.31 52.68
  L 293.82 59.20
  C 293.88 59.25 293.95 59.27 294.02 59.24
  C 294.10 59.21 294.18 59.19 294.27 59.16
  C 294.37 59.13 294.39 59.00 294.32 58.93
  L 284.22 48.96
  C 284.17 48.92 284.10 48.93 284.08 48.99
  C 284.05 49.08 284.03 49.16 284.00 49.25
  C 283.99 49.29 284.01 49.35 284.08 49.42
  L 285.85 51.30
  C 286.10 51.56 286.12 51.96 285.92 52.26
  C 285.06 53.50 284.53 54.72 284.34 55.91
  L 267.02 85.10
  L 258.85 84.63
  L 241.78 53.42
  C 241.68 53.24 241.46 53.17 241.28 53.25
  C 241.09 53.33 241.00 53.54 241.06 53.73
  L 251.27 84.48
  C 251.48 85.12 251.34 85.21 250.85 84.75
  C 237.09 72.02 199.65 35.38 211.23 15.65
  C 218.25 3.70 232.11 19.15 241.00 15.66
  C 256.76 9.47 272.12 10.53 288.00 15.97
  C 289.03 16.33 290.71 16.10 293.04 15.27
  C 302.46 11.94 315.47 5.85 317.91 21.65
  C 320.98 41.64 289.90 71.79 276.54 84.42
  C 275.63 85.28 275.38 85.12 275.77 83.93
  L 284.86 56.32
  Z"
/>
<path fill="#e7b70e" d="
  M 366.40 94.35
  L 364.05 93.76
  L 359.40 92.97
  C 349.15 91.21 339.08 90.48 329.17 90.77
  C 317.56 91.18 306.92 94.17 297.26 99.75
  C 295.07 101.01 293.79 102.85 291.71 104.45
  L 291.42 102.32
  C 302.03 91.23 311.08 82.97 314.97 76.98
  C 315.21 76.61 315.12 76.51 314.71 76.66
  C 313.76 77.01 312.87 77.47 312.06 78.06
  C 304.82 83.28 297.85 88.59 291.15 93.98
  C 290.59 94.43 289.81 93.82 290.11 93.17
  C 296.73 78.96 323.03 25.73 345.29 35.03
  C 356.19 39.59 347.15 54.88 352.80 62.62
  C 357.00 68.38 360.52 74.54 363.37 81.10
  C 364.16 82.93 365.17 87.34 366.40 94.35
  Z"
/>
<path fill="#ec4625" d="
  M 241.86 90.75
  L 240.20 95.75
  C 240.10 96.05 240.41 96.32 240.70 96.19
  C 242.48 95.38 243.67 94.07 244.26 92.25
  C 244.36 91.94 244.57 91.77 244.88 91.72
  C 249.47 91.01 253.43 91.53 257.34 88.68
  C 257.57 88.51 257.88 88.48 258.15 88.60
  C 260.57 89.73 263.03 89.79 265.54 88.78
  C 265.87 88.65 266.19 88.67 266.50 88.84
  L 269.82 90.67
  C 270.03 90.78 270.27 90.83 270.50 90.80
  L 273.47 90.45
  C 273.75 90.42 273.98 90.51 274.17 90.73
  C 276.03 92.91 278.30 94.49 280.97 95.47
  C 281.31 95.59 281.57 95.85 281.70 96.19
  C 282.61 98.61 284.20 100.43 286.48 101.66
  C 286.75 101.81 286.95 102.06 287.01 102.36
  L 287.74 105.84
  C 287.96 106.86 289.06 107.43 290.02 107.02
  C 290.91 106.63 291.48 105.78 291.71 104.45
  C 293.79 102.85 295.07 101.01 297.26 99.75
  C 306.92 94.17 317.56 91.18 329.17 90.77
  L 337.52 97.70
  C 323.09 97.25 307.60 98.90 296.75 109.25
  C 296.04 109.34 295.81 109.97 296.07 111.12
  C 296.00 111.20 295.93 111.28 295.86 111.37
  C 294.25 111.00 293.57 111.70 293.81 113.49
  L 291.68 113.80
  C 291.28 113.86 291.11 114.09 291.16 114.50
  C 291.50 117.23 291.07 119.84 289.87 122.35
  C 289.73 122.65 289.79 123.01 290.02 123.24
  L 291.68 124.90
  C 291.87 125.09 291.91 125.38 291.79 125.62
  C 290.87 127.49 289.57 129.04 287.88 130.28
  C 287.63 130.46 287.47 130.74 287.44 131.05
  C 287.20 133.57 285.90 135.31 283.53 136.26
  C 283.21 136.39 282.99 136.67 282.93 137.00
  C 282.45 139.85 280.80 141.29 277.98 141.30
  C 277.72 141.31 277.47 141.42 277.30 141.61
  L 274.53 144.66
  C 274.40 144.80 274.23 144.89 274.04 144.90
  L 269.92 145.16
  C 269.51 145.19 269.15 145.33 268.84 145.58
  C 267.90 146.33 266.87 146.90 265.74 147.29
  C 265.41 147.41 265.04 147.39 264.72 147.24
  C 261.80 145.86 260.35 147.04 257.46 147.31
  C 257.17 147.34 256.88 147.22 256.68 147.01
  C 254.89 145.14 252.71 144.60 250.16 145.39
  C 249.79 145.50 249.39 145.38 249.16 145.08
  L 246.76 142.02
  C 246.51 141.70 246.19 141.51 245.78 141.46
  L 243.16 141.10
  C 242.95 141.07 242.77 140.95 242.67 140.77
  L 240.49 136.67
  C 240.40 136.50 240.25 136.38 240.06 136.32
  L 236.97 135.44
  L 231.36 130.30
  L 225.40 123.78
  C 225.18 123.54 224.83 123.48 224.54 123.63
  C 221.97 125.02 219.65 126.05 216.89 127.56
  C 215.09 128.55 212.77 128.61 211.08 129.29
  C 197.85 134.58 184.09 140.06 169.78 141.24
  C 162.53 141.84 156.52 139.70 151.74 134.81
  C 153.79 133.38 156.10 132.92 158.67 133.43
  C 163.20 134.33 167.97 133.81 172.60 133.90
  C 172.90 133.91 173.14 133.80 173.33 133.57
  L 178.06 127.79
  C 178.27 127.54 178.16 127.15 177.85 127.04
  C 177.61 126.95 177.34 126.97 177.04 127.12
  L 153.62 121.06
  L 160.42 111.34
  L 164.71 110.19
  C 165.06 110.10 165.14 109.89 164.95 109.58
  C 163.79 107.65 162.43 106.68 160.87 106.67
  C 161.45 99.52 161.77 91.85 164.11 85.32
  C 166.96 77.35 170.99 69.97 176.21 63.18
  C 177.28 61.78 177.69 59.30 177.43 55.75
  C 177.01 49.92 175.95 41.02 181.53 37.43
  C 184.12 35.77 190.97 35.69 193.90 36.94
  C 204.70 41.54 212.77 51.83 218.77 60.72
  C 224.56 69.30 229.78 78.21 234.43 87.46
  C 234.59 87.77 234.81 88.03 235.10 88.22
  C 235.91 88.76 236.30 89.55 236.27 90.58
  C 236.24 91.91 237.73 92.71 238.81 91.94
  C 239.68 91.32 240.70 90.92 241.86 90.75
  Z
  M 211.46 76.04
  C 211.21 76.48 211.15 76.79 211.29 76.96
  C 217.86 85.03 224.93 92.63 232.51 99.74
  C 232.14 100.38 232.24 100.83 232.79 101.08
  L 229.18 108.66
  C 229.00 109.03 229.44 109.39 229.77 109.14
  C 232.07 107.39 233.92 108.48 235.78 107.48
  C 236.21 107.25 236.46 106.89 236.53 106.41
  C 236.59 105.97 236.40 105.80 235.97 105.91
  L 234.88 106.17
  C 234.52 106.25 234.17 106.00 234.14 105.63
  L 234.00 103.60
  C 233.99 103.48 234.02 103.36 234.10 103.26
  C 235.45 101.51 235.74 99.84 234.99 98.24
  L 235.22 94.21
  C 235.24 93.86 235.10 93.61 234.79 93.46
  L 231.82 91.90
  C 231.64 91.33 231.35 90.89 230.94 90.56
  C 227.57 87.87 223.26 84.61 217.99 80.76
  C 217.64 77.43 213.27 73.80 210.97 71.55
  C 210.69 71.28 210.68 70.83 210.94 70.55
  L 216.20 64.80
  C 216.29 64.69 216.32 64.57 216.27 64.43
  C 216.24 64.34 216.16 64.28 216.04 64.25
  C 216.02 64.24 216.00 64.25 215.98 64.26
  C 214.18 66.29 212.27 68.20 210.24 70.00
  C 209.92 70.28 209.43 70.26 209.13 69.96
  L 186.63 47.47
  C 186.29 47.14 186.30 46.58 186.65 46.25
  L 191.94 41.25
  C 192.03 41.16 192.05 41.02 191.99 40.92
  C 191.92 40.80 191.82 40.74 191.70 40.73
  C 191.59 40.72 191.47 40.77 191.33 40.89
  C 189.55 42.41 188.01 43.82 186.72 45.13
  C 186.02 45.83 184.87 45.80 184.21 45.06
  C 183.59 44.36 182.89 43.70 182.10 43.07
  C 181.96 42.96 181.75 42.97 181.62 43.11
  C 181.50 43.25 181.51 43.46 181.64 43.59
  L 208.98 70.62
  C 209.25 70.89 209.25 71.32 208.98 71.58
  L 204.81 75.56
  C 204.66 75.71 204.67 75.85 204.84 75.96
  C 204.96 76.03 205.08 76.02 205.20 75.93
  C 206.65 74.82 208.02 73.59 209.33 72.24
  C 209.67 71.88 209.99 71.90 210.28 72.31
  L 211.48 74.00
  C 211.57 74.13 211.54 74.21 211.38 74.22
  C 211.25 74.24 211.14 74.29 211.03 74.36
  C 210.90 74.46 210.81 74.62 210.77 74.85
  C 210.60 75.81 210.83 76.21 211.46 76.04
  Z
  M 265.35 99.57
  C 261.38 96.66 260.65 98.59 257.54 99.88
  C 255.97 100.53 254.29 100.14 252.55 100.26
  C 252.20 100.29 251.90 100.42 251.65 100.66
  C 250.36 101.89 249.52 103.34 249.13 105.00
  C 249.03 105.41 248.78 105.68 248.39 105.81
  L 245.14 106.91
  C 244.81 107.02 244.62 107.25 244.57 107.60
  L 243.61 113.96
  C 243.56 114.32 243.41 114.64 243.18 114.92
  C 242.43 115.83 241.87 116.84 241.48 117.96
  C 241.35 118.34 241.44 118.75 241.71 119.04
  L 244.21 121.70
  C 244.44 121.95 244.56 122.28 244.54 122.61
  L 244.22 128.17
  C 244.20 128.47 244.38 128.75 244.66 128.85
  C 247.50 129.88 249.52 131.77 250.73 134.52
  C 251.12 135.41 252.06 135.93 253.02 135.79
  C 256.15 135.34 258.88 136.16 261.22 138.26
  C 261.48 138.50 261.87 138.53 262.17 138.35
  L 266.07 135.94
  C 266.27 135.82 266.50 135.75 266.73 135.75
  L 271.50 135.75
  C 272.15 135.75 272.72 135.33 272.92 134.71
  C 273.91 131.60 277.84 129.51 277.08 126.50
  C 276.97 126.05 276.81 126.03 276.61 126.46
  L 275.66 128.48
  C 275.58 128.65 275.41 128.75 275.23 128.75
  C 275.12 128.75 275.02 128.75 274.92 128.74
  C 274.57 128.73 274.44 128.56 274.54 128.22
  L 275.64 124.40
  C 275.70 124.21 275.66 124.04 275.51 123.89
  L 275.31 123.69
  C 275.15 123.53 275.10 123.29 275.17 123.08
  C 275.43 122.26 275.72 122.04 276.05 122.43
  C 276.24 122.66 276.56 122.70 276.80 122.53
  C 278.64 121.20 280.12 119.55 281.25 117.60
  C 281.68 116.52 282.32 115.53 283.15 114.64
  C 285.16 112.50 287.88 113.28 289.37 109.64
  C 289.45 109.43 289.43 109.24 289.30 109.05
  L 287.93 107.14
  C 287.79 106.94 287.52 106.88 287.30 106.99
  L 286.24 107.52
  C 285.85 107.72 285.58 107.62 285.42 107.21
  C 283.97 103.55 276.83 97.77 273.34 94.77
  C 273.09 94.55 272.86 94.57 272.65 94.82
  C 271.34 96.40 270.48 98.18 270.09 100.17
  C 270.02 100.51 269.82 100.69 269.48 100.72
  C 268.01 100.83 266.63 100.45 265.35 99.57
  Z
  M 238.4965 100.7508
  C 238.83 101.06 239.70 100.66 240.4397 99.8692
  C 241.18 99.07 241.51 98.18 241.1835 97.8692
  C 240.85 97.56 239.98 97.96 239.2403 98.7508
  C 238.50 99.55 238.17 100.44 238.4965 100.7508
  Z
  M 189.71 103.74
  C 185.05 104.06 181.41 103.25 177.23 104.16
  C 173.13 105.05 168.62 104.52 164.14 105.55
  C 163.82 105.63 163.69 106.02 163.92 106.26
  L 166.83 109.30
  C 166.99 109.47 167.24 109.55 167.47 109.49
  C 173.53 108.04 179.68 107.72 185.93 108.55
  C 186.30 108.60 186.67 108.47 186.92 108.19
  L 190.13 104.61
  C 190.45 104.26 190.18 103.71 189.71 103.74
  Z
  M 213.44 115.35
  L 197.97 118.08
  C 197.84 118.10 197.74 118.22 197.74 118.36
  C 197.75 118.49 197.85 118.60 197.98 118.62
  C 204.71 119.49 211.66 119.53 218.83 118.72
  C 219.93 118.80 220.93 118.09 221.82 116.59
  C 223.71 116.34 225.14 115.40 226.09 113.76
  C 226.27 113.45 226.02 113.08 225.67 113.13
  L 220.57 113.85
  C 220.20 113.90 219.99 114.12 219.96 114.50
  C 219.95 114.60 219.94 114.72 219.95 114.85
  C 211.06 108.58 202.64 107.27 192.61 104.28
  C 192.28 104.18 191.92 104.28 191.68 104.53
  L 188.68 107.71
  C 188.44 107.96 188.59 108.38 188.94 108.42
  C 192.76 108.86 196.24 108.65 199.82 109.98
  C 204.45 111.70 208.99 113.49 213.44 115.35
  Z
  M 232.42 115.86
  L 230.21 118.78
  C 229.97 119.10 230.05 119.24 230.45 119.20
  C 232.46 119.01 233.35 116.26 234.43 114.68
  C 234.70 114.28 234.60 114.05 234.11 114.00
  C 232.18 113.77 230.63 112.85 229.46 111.24
  C 229.35 111.08 229.14 111.01 228.95 111.07
  L 228.19 111.30
  C 227.96 111.37 227.91 111.68 228.10 111.83
  L 232.32 115.15
  C 232.59 115.36 232.62 115.59 232.42 115.86
  Z"
/>
<path fill="#ee5c28" d="
  M 217.99 80.76
  L 211.46 76.04
  C 210.83 76.21 210.60 75.81 210.77 74.85
  C 210.81 74.62 210.90 74.46 211.03 74.36
  C 211.14 74.29 211.25 74.24 211.38 74.22
  C 211.54 74.21 211.57 74.13 211.48 74.00
  L 210.28 72.31
  C 209.99 71.90 209.67 71.88 209.33 72.24
  C 208.02 73.59 206.65 74.82 205.20 75.93
  C 205.08 76.02 204.96 76.03 204.84 75.96
  C 204.67 75.85 204.66 75.71 204.81 75.56
  L 208.98 71.58
  C 209.25 71.32 209.25 70.89 208.98 70.62
  L 181.64 43.59
  C 181.51 43.46 181.50 43.25 181.62 43.11
  C 181.75 42.97 181.96 42.96 182.10 43.07
  C 182.89 43.70 183.59 44.36 184.21 45.06
  C 184.87 45.80 186.02 45.83 186.72 45.13
  C 188.01 43.82 189.55 42.41 191.33 40.89
  C 191.47 40.77 191.59 40.72 191.70 40.73
  C 191.82 40.74 191.92 40.80 191.99 40.92
  C 192.05 41.02 192.03 41.16 191.94 41.25
  L 186.65 46.25
  C 186.30 46.58 186.29 47.14 186.63 47.47
  L 209.13 69.96
  C 209.43 70.26 209.92 70.28 210.24 70.00
  C 212.27 68.20 214.18 66.29 215.98 64.26
  C 216.00 64.25 216.02 64.24 216.04 64.25
  C 216.16 64.28 216.24 64.34 216.27 64.43
  C 216.32 64.57 216.29 64.69 216.20 64.80
  L 210.94 70.55
  C 210.68 70.83 210.69 71.28 210.97 71.55
  C 213.27 73.80 217.64 77.43 217.99 80.76
  Z"
/>
<path fill="#e7b70e" d="
  M 284.86 56.32
  C 284.75 56.08 284.57 55.94 284.34 55.91
  C 284.53 54.72 285.06 53.50 285.92 52.26
  C 286.12 51.96 286.10 51.56 285.85 51.30
  L 284.08 49.42
  C 284.01 49.35 283.99 49.29 284.00 49.25
  C 284.03 49.16 284.05 49.08 284.08 48.99
  C 284.10 48.93 284.17 48.92 284.22 48.96
  L 294.32 58.93
  C 294.39 59.00 294.37 59.13 294.27 59.16
  C 294.18 59.19 294.10 59.21 294.02 59.24
  C 293.95 59.27 293.88 59.25 293.82 59.20
  L 287.31 52.68
  C 286.85 52.22 286.06 52.57 286.09 53.22
  C 286.17 54.88 285.76 55.91 284.86 56.32
  Z"
/>
<path fill="#ee5c28" d="
  M 496.43 88.04
  C 495.96 88.19 495.74 88.19 495.79 88.04
  C 495.88 87.76 496.06 87.55 496.32 87.41
  C 496.53 87.29 496.52 87.24 496.28 87.25
  C 496.17 87.25 496.05 87.25 495.94 87.24
  C 495.72 87.22 495.49 87.29 495.31 87.43
  C 494.64 87.94 493.90 88.22 493.09 88.26
  C 492.72 88.28 492.47 88.12 492.33 87.77
  L 491.94 86.77
  L 495.42 84.94
  C 496.09 84.59 496.05 84.37 495.30 84.29
  C 493.94 84.14 492.58 84.77 491.22 86.18
  C 489.69 85.41 488.29 85.45 487.03 86.29
  C 486.64 86.55 486.44 86.44 486.43 85.97
  C 486.42 85.36 486.75 84.81 487.43 84.33
  C 487.56 84.24 487.63 84.10 487.64 83.94
  L 487.79 76.60
  C 487.80 76.29 487.65 76.10 487.34 76.04
  L 485.58 75.71
  C 485.15 75.63 484.73 75.90 484.62 76.33
  L 483.88 79.23
  C 483.79 79.57 483.31 79.55 483.24 79.21
  C 482.97 77.88 483.22 76.66 484.00 75.53
  C 484.22 75.21 484.17 74.94 483.86 74.71
  L 483.14 74.19
  C 483.45 73.37 483.99 72.74 484.76 72.31
  L 488.90 68.52
  C 489.43 68.03 490.24 68.62 489.96 69.28
  C 489.48 70.40 487.60 72.20 488.14 73.60
  C 488.47 74.46 489.75 74.22 489.75 73.30
  L 489.75 72.78
  C 489.75 72.41 489.93 72.24 490.30 72.27
  C 491.99 72.40 493.34 71.77 494.37 70.40
  C 494.51 70.22 494.75 70.15 494.96 70.23
  C 495.06 70.27 495.16 70.30 495.25 70.33
  C 495.33 70.36 495.36 70.46 495.31 70.53
  C 494.25 71.96 493.65 73.59 493.52 75.40
  C 493.49 75.77 493.66 75.92 494.02 75.85
  C 496.17 75.42 497.22 74.07 497.17 71.79
  C 497.16 71.33 497.38 71.14 497.83 71.21
  L 499.72 71.49
  C 499.98 71.53 500.19 71.45 500.35 71.25
  L 501.34 70.04
  C 501.47 69.88 501.70 69.84 501.88 69.94
  C 502.05 70.05 502.13 70.27 502.05 70.46
  C 501.49 71.82 501.67 73.08 502.59 74.24
  C 502.93 74.68 502.70 75.32 502.15 75.43
  C 499.85 75.90 498.14 77.18 497.02 79.27
  C 496.80 79.68 497.11 80.18 497.58 80.16
  L 501.06 80.00
  C 501.44 79.98 501.78 79.73 501.92 79.37
  L 503.95 73.95
  C 504.09 73.58 504.56 73.46 504.86 73.72
  C 506.55 75.20 504.13 79.85 503.45 81.68
  C 503.34 81.97 503.15 82.19 502.86 82.33
  C 502.04 82.74 501.43 83.35 501.03 84.16
  C 500.91 84.41 500.99 84.71 501.23 84.85
  L 501.90 85.25
  C 502.55 85.63 502.50 85.85 501.75 85.91
  C 499.80 86.04 498.03 86.75 496.43 88.04
  Z
  M 494.6636 78.5212
  C 494.31 78.09 493.18 78.43 492.1330 79.2762
  C 491.09 80.13 490.52 81.17 490.8764 81.5988
  C 491.23 82.03 492.36 81.69 493.4070 80.8438
  C 494.45 79.99 495.02 78.95 494.6636 78.5212
  Z"
/>
<path fill="#e7b70e" d="
  M 484.76 72.31
  C 483.99 72.74 483.45 73.37 483.14 74.19
  C 482.40 75.80 481.41 76.56 480.17 76.48
  L 482.88 71.64
  C 483.11 71.22 483.74 71.29 483.87 71.75
  C 483.98 72.16 484.28 72.34 484.76 72.31
  Z"
/>
<path fill="#fac4b2" d="
  M 483.14 74.19
  L 483.86 74.71
  C 484.17 74.94 484.22 75.21 484.00 75.53
  C 483.22 76.66 482.97 77.88 483.24 79.21
  C 483.31 79.55 483.79 79.57 483.88 79.23
  L 484.62 76.33
  C 484.73 75.90 485.15 75.63 485.58 75.71
  L 487.34 76.04
  C 487.65 76.10 487.80 76.29 487.79 76.60
  L 487.64 83.94
  C 487.63 84.10 487.56 84.24 487.43 84.33
  C 486.75 84.81 486.42 85.36 486.43 85.97
  C 486.44 86.44 486.64 86.55 487.03 86.29
  C 488.29 85.45 489.69 85.41 491.22 86.18
  C 491.31 86.56 491.55 86.76 491.94 86.77
  L 492.33 87.77
  C 492.47 88.12 492.72 88.28 493.09 88.26
  C 493.90 88.22 494.64 87.94 495.31 87.43
  C 495.49 87.29 495.72 87.22 495.94 87.24
  C 496.05 87.25 496.17 87.25 496.28 87.25
  C 496.52 87.24 496.53 87.29 496.32 87.41
  C 496.06 87.55 495.88 87.76 495.79 88.04
  C 495.74 88.19 495.96 88.19 496.43 88.04
  C 495.72 89.81 494.38 90.70 492.40 90.70
  C 492.92 86.28 485.34 87.97 482.84 88.10
  C 485.18 86.49 482.64 84.82 482.09 83.30
  C 481.22 80.91 480.58 78.63 480.17 76.48
  C 481.41 76.56 482.40 75.80 483.14 74.19
  Z"
/>
<path fill="#0a5dd4" d="
  M 137.37 113.80
  C 137.08 114.57 136.45 114.75 135.48 114.34
  C 130.43 110.75 125.79 106.74 121.58 102.30
  C 121.32 102.03 121.01 101.87 120.64 101.82
  C 118.70 101.53 117.51 100.45 117.08 98.57
  C 117.01 98.27 116.82 98.06 116.53 97.95
  C 112.65 96.52 109.34 94.24 106.59 91.13
  C 106.36 90.87 106.38 90.48 106.63 90.25
  L 113.42 84.08
  C 113.60 83.92 113.87 83.93 114.04 84.10
  C 117.13 87.23 119.15 90.94 120.10 95.23
  C 120.19 95.62 120.42 95.88 120.79 96.03
  L 122.73 96.83
  C 122.88 96.89 123.01 97.02 123.07 97.17
  C 123.61 98.50 123.52 99.78 122.80 101.03
  C 122.67 101.27 122.69 101.57 122.86 101.79
  C 126.77 106.76 131.60 110.77 137.37 113.80
  Z"
/>
<path fill="#0a5dd4" d="
  M 258.85 84.63
  L 267.02 85.10
  C 278.73 87.48 285.05 92.60 291.42 102.32
  L 291.71 104.45
  C 291.48 105.78 290.91 106.63 290.02 107.02
  C 289.06 107.43 287.96 106.86 287.74 105.84
  L 287.01 102.36
  C 286.95 102.06 286.75 101.81 286.48 101.66
  C 284.20 100.43 282.61 98.61 281.70 96.19
  C 281.57 95.85 281.31 95.59 280.97 95.47
  C 278.30 94.49 276.03 92.91 274.17 90.73
  C 273.98 90.51 273.75 90.42 273.47 90.45
  L 270.50 90.80
  C 270.27 90.83 270.03 90.78 269.82 90.67
  L 266.50 88.84
  C 266.19 88.67 265.87 88.65 265.54 88.78
  C 263.03 89.79 260.57 89.73 258.15 88.60
  C 257.88 88.48 257.57 88.51 257.34 88.68
  C 253.43 91.53 249.47 91.01 244.88 91.72
  C 244.57 91.77 244.36 91.94 244.26 92.25
  C 243.67 94.07 242.48 95.38 240.70 96.19
  C 240.41 96.32 240.10 96.05 240.20 95.75
  L 241.86 90.75
  C 246.88 87.92 252.54 85.88 258.85 84.63
  Z"
/>
<path fill="#ee5c28" d="
  M 492.40 90.70
  L 489.21 91.35
  C 488.89 91.41 488.61 91.60 488.43 91.87
  C 485.52 96.13 481.86 99.56 477.43 102.16
  C 477.06 102.37 476.89 102.81 477.01 103.22
  C 477.16 103.71 477.48 104.01 477.98 104.10
  C 483.93 105.25 490.24 106.34 496.91 107.37
  C 495.48 108.99 494.51 110.61 494.02 112.23
  C 492.87 116.03 491.37 117.95 488.52 120.33
  C 485.11 116.06 478.75 106.95 473.65 104.79
  C 473.30 104.64 472.96 104.64 472.61 104.78
  C 459.31 110.02 445.77 112.22 432.00 111.39
  C 428.69 111.19 425.67 111.59 422.69 111.16
  C 419.74 110.73 416.78 110.49 413.79 110.46
  C 412.78 110.45 411.71 109.73 411.01 109.73
  C 408.35 109.73 405.47 109.40 402.36 108.73
  C 404.54 106.79 405.73 104.78 405.94 102.70
  L 407.35 102.82
  C 409.25 105.99 410.68 108.88 414.70 107.07
  C 417.71 105.73 420.33 109.57 422.94 104.56
  C 436.39 105.19 450.44 105.45 463.57 101.14
  L 469.38 98.72
  C 474.72 96.83 479.21 93.29 482.84 88.10
  C 485.34 87.97 492.92 86.28 492.40 90.70
  Z"
/>
<path fill="#f6b047" d="
  M 469.38 98.72
  L 463.57 101.14
  C 459.69 98.33 456.25 96.68 453.25 96.19
  C 445.05 94.82 432.24 93.98 423.08 96.20
  C 416.90 97.69 410.71 99.15 404.52 100.58
  C 403.59 100.79 403.17 101.29 403.26 102.06
  C 403.23 102.46 403.08 102.76 402.80 102.96
  C 402.45 103.22 401.94 103.06 401.80 102.64
  C 401.43 101.57 400.70 100.87 399.61 100.54
  C 399.32 100.45 399.02 100.46 398.73 100.58
  C 397.02 101.27 395.40 101.19 393.88 100.34
  C 399.50 98.72 403.79 97.48 410.21 95.09
  C 414.89 93.34 419.73 92.27 424.73 91.87
  C 430.98 91.37 436.95 90.00 442.25 90.84
  C 450.41 92.13 461.62 93.96 469.38 98.72
  Z"
/>
<path fill="#ee5c28" d="
  M 329.17 90.77
  C 339.08 90.48 349.15 91.21 359.40 92.97
  C 358.09 95.14 356.26 96.85 356.39 99.54
  C 349.96 98.41 343.67 97.80 337.52 97.70
  L 329.17 90.77
  Z"
/>
<path fill="#fac4b2" d="
  M 231.82 91.90
  L 234.79 93.46
  C 235.10 93.61 235.24 93.86 235.22 94.21
  L 234.99 98.24
  L 232.79 101.08
  C 232.24 100.83 232.14 100.38 232.51 99.74
  C 233.21 98.88 233.43 98.02 233.17 97.16
  C 233.04 96.73 232.77 96.60 232.36 96.75
  L 231.70 97.00
  C 231.22 97.17 230.74 96.75 230.85 96.26
  L 231.82 91.90
  Z"
/>
<path fill="#9a3713" d="
  M 359.40 92.97
  L 364.05 93.76
  C 362.06 95.25 360.75 97.36 360.12 100.10
  C 358.89 99.56 357.65 99.37 356.39 99.54
  C 356.26 96.85 358.09 95.14 359.40 92.97
  Z"
/>
<path fill="#ee5c28" d="
  M 364.05 93.76
  L 366.40 94.35
  L 376.30 96.39
  C 373.72 97.26 371.99 99.11 371.11 101.94
  L 367.31 101.25
  L 360.12 100.10
  C 360.75 97.36 362.06 95.25 364.05 93.76
  Z"
/>
<path fill="#ee5c28" d="
  M 281.25 117.60
  C 275.35 117.33 275.48 118.99 273.39 123.53
  C 272.00 123.70 271.37 123.36 271.50 122.50
  C 271.81 120.47 272.83 118.10 274.56 115.41
  C 277.53 114.44 279.23 112.44 279.65 109.40
  C 279.77 108.52 279.16 107.71 278.29 107.58
  C 274.79 107.05 271.36 106.35 267.99 105.48
  C 265.17 104.75 264.29 102.78 265.35 99.57
  C 266.63 100.45 268.01 100.83 269.48 100.72
  C 269.82 100.69 270.02 100.51 270.09 100.17
  C 270.48 98.18 271.34 96.40 272.65 94.82
  C 272.86 94.57 273.09 94.55 273.34 94.77
  C 276.83 97.77 283.97 103.55 285.42 107.21
  C 285.58 107.62 285.85 107.72 286.24 107.52
  L 287.30 106.99
  C 287.52 106.88 287.79 106.94 287.93 107.14
  L 289.30 109.05
  C 289.43 109.24 289.45 109.43 289.37 109.64
  C 287.88 113.28 285.16 112.50 283.15 114.64
  C 282.32 115.53 281.68 116.52 281.25 117.60
  Z"
/>
<path fill="#9a3713" d="
  M 376.30 96.39
  L 393.88 100.34
  C 395.40 101.19 397.02 101.27 398.73 100.58
  C 399.02 100.46 399.32 100.45 399.61 100.54
  C 400.70 100.87 401.43 101.57 401.80 102.64
  C 401.94 103.06 402.45 103.22 402.80 102.96
  C 403.08 102.76 403.23 102.46 403.26 102.06
  L 405.94 102.70
  C 405.73 104.78 404.54 106.79 402.36 108.73
  C 393.31 106.69 387.78 106.33 380.54 109.90
  C 380.03 110.15 380.10 110.90 380.65 111.06
  L 383.27 111.81
  C 382.32 111.99 381.99 112.28 382.30 112.68
  C 379.83 111.55 377.83 111.28 376.32 111.85
  C 376.99 110.64 377.41 109.14 377.59 107.37
  L 382.03 106.00
  C 382.76 105.78 382.72 104.74 381.98 104.56
  L 371.11 101.94
  C 371.99 99.11 373.72 97.26 376.30 96.39
  Z"
/>
<ellipse fill="#9d164e" cx="0.00" cy="0.00" transform="translate(239.84,99.31) rotate(133.0)" rx="1.97" ry="0.82"/>
<path fill="#e7b70e" d="
  M 337.52 97.70
  C 343.67 97.80 349.96 98.41 356.39 99.54
  C 357.65 99.37 358.89 99.56 360.12 100.10
  L 367.31 101.25
  L 366.69 107.64
  C 345.93 104.15 330.60 105.40 308.11 107.73
  C 304.97 108.06 300.67 109.17 296.75 109.25
  C 307.60 98.90 323.09 97.25 337.52 97.70
  Z"
/>
<path fill="#7d24c1" d="
  M 265.35 99.57
  C 264.29 102.78 265.17 104.75 267.99 105.48
  C 271.36 106.35 274.79 107.05 278.29 107.58
  C 279.16 107.71 279.77 108.52 279.65 109.40
  C 279.23 112.44 277.53 114.44 274.56 115.41
  C 271.71 107.64 266.78 104.34 259.76 105.53
  C 245.87 107.88 245.75 127.69 259.07 130.44
  C 265.19 131.70 269.96 129.40 273.39 123.53
  C 275.48 118.99 275.35 117.33 281.25 117.60
  C 280.12 119.55 278.64 121.20 276.80 122.53
  C 276.56 122.70 276.24 122.66 276.05 122.43
  C 275.72 122.04 275.43 122.26 275.17 123.08
  C 275.10 123.29 275.15 123.53 275.31 123.69
  L 275.51 123.89
  C 275.66 124.04 275.70 124.21 275.64 124.40
  L 274.54 128.22
  C 274.44 128.56 274.57 128.73 274.92 128.74
  C 275.02 128.75 275.12 128.75 275.23 128.75
  C 275.41 128.75 275.58 128.65 275.66 128.48
  L 276.61 126.46
  C 276.81 126.03 276.97 126.05 277.08 126.50
  C 277.84 129.51 273.91 131.60 272.92 134.71
  C 272.72 135.33 272.15 135.75 271.50 135.75
  L 266.73 135.75
  C 266.50 135.75 266.27 135.82 266.07 135.94
  L 262.17 138.35
  C 261.87 138.53 261.48 138.50 261.22 138.26
  C 258.88 136.16 256.15 135.34 253.02 135.79
  C 252.06 135.93 251.12 135.41 250.73 134.52
  C 249.52 131.77 247.50 129.88 244.66 128.85
  C 244.38 128.75 244.20 128.47 244.22 128.17
  L 244.54 122.61
  C 244.56 122.28 244.44 121.95 244.21 121.70
  L 241.71 119.04
  C 241.44 118.75 241.35 118.34 241.48 117.96
  C 241.87 116.84 242.43 115.83 243.18 114.92
  C 243.41 114.64 243.56 114.32 243.61 113.96
  L 244.57 107.60
  C 244.62 107.25 244.81 107.02 245.14 106.91
  L 248.39 105.81
  C 248.78 105.68 249.03 105.41 249.13 105.00
  C 249.52 103.34 250.36 101.89 251.65 100.66
  C 251.90 100.42 252.20 100.29 252.55 100.26
  C 254.29 100.14 255.97 100.53 257.54 99.88
  C 260.65 98.59 261.38 96.66 265.35 99.57
  Z"
/>
<path fill="#9d164e" d="
  M 234.99 98.24
  C 235.74 99.84 235.45 101.51 234.10 103.26
  C 234.02 103.36 233.99 103.48 234.00 103.60
  L 234.14 105.63
  C 234.17 106.00 234.52 106.25 234.88 106.17
  L 235.97 105.91
  C 236.40 105.80 236.59 105.97 236.53 106.41
  C 236.46 106.89 236.21 107.25 235.78 107.48
  C 233.92 108.48 232.07 107.39 229.77 109.14
  C 229.44 109.39 229.00 109.03 229.18 108.66
  L 232.79 101.08
  L 234.99 98.24
  Z"
/>
<path fill="#ee5c28" d="
  M 23.06 107.43
  C 22.45 107.69 21.76 107.58 21.01 107.09
  C 20.54 106.78 20.25 106.90 20.15 107.46
  C 20.00 108.30 20.38 109.22 21.30 110.22
  C 24.07 113.22 27.01 116.11 30.11 118.89
  C 30.36 119.11 30.40 119.48 30.21 119.75
  C 29.74 120.44 29.09 120.97 28.26 121.35
  C 22.51 120.20 16.76 119.16 11.00 118.22
  C 4.30 117.14 13.89 104.57 15.79 102.45
  C 16.70 101.43 18.31 101.48 19.16 102.55
  L 23.06 107.43
  Z"
/>
<path fill="#9a3713" d="
  M 407.35 102.82
  L 422.94 104.56
  C 420.33 109.57 417.71 105.73 414.70 107.07
  C 410.68 108.88 409.25 105.99 407.35 102.82
  Z"
/>
<path fill="#f6b047" d="
  M 177.23 104.16
  C 181.41 103.25 185.05 104.06 189.71 103.74
  C 190.18 103.71 190.45 104.26 190.13 104.61
  L 186.92 108.19
  C 186.67 108.47 186.30 108.60 185.93 108.55
  C 179.68 107.72 173.53 108.04 167.47 109.49
  C 167.24 109.55 166.99 109.47 166.83 109.30
  L 163.92 106.26
  C 163.69 106.02 163.82 105.63 164.14 105.55
  C 168.62 104.52 173.13 105.05 177.23 104.16
  Z"
/>
<path fill="#f6b047" d="
  M 219.95 114.85
  C 220.33 115.56 220.95 116.14 221.82 116.59
  C 220.93 118.09 219.93 118.80 218.83 118.72
  C 217.81 117.09 216.01 115.96 213.44 115.35
  C 208.99 113.49 204.45 111.70 199.82 109.98
  C 196.24 108.65 192.76 108.86 188.94 108.42
  C 188.59 108.38 188.44 107.96 188.68 107.71
  L 191.68 104.53
  C 191.92 104.28 192.28 104.18 192.61 104.28
  C 202.64 107.27 211.06 108.58 219.95 114.85
  Z"
/>
<path fill="#f17aca" d="
  M 274.56 115.41
  C 272.83 118.10 271.81 120.47 271.50 122.50
  C 271.37 123.36 272.00 123.70 273.39 123.53
  C 269.96 129.40 265.19 131.70 259.07 130.44
  C 245.75 127.69 245.87 107.88 259.76 105.53
  C 266.78 104.34 271.71 107.64 274.56 115.41
  Z"
/>
<path fill="#7d24c1" d="
  M 366.69 107.64
  C 367.44 108.12 368.34 108.33 369.38 108.26
  C 369.72 108.24 370.05 108.29 370.36 108.42
  L 372.00 109.09
  C 371.40 109.44 370.92 109.61 370.57 109.62
  C 369.60 108.96 368.39 108.79 366.94 109.10
  C 357.09 107.08 347.28 106.16 337.51 106.35
  C 326.41 106.56 314.61 107.89 302.10 110.32
  L 296.07 111.12
  C 295.81 109.97 296.04 109.34 296.75 109.25
  C 300.67 109.17 304.97 108.06 308.11 107.73
  C 330.60 105.40 345.93 104.15 366.69 107.64
  Z"
/>
<path fill="#e7b70e" d="
  M 366.94 109.10
  C 367.16 110.15 368.02 110.68 369.52 110.70
  C 369.80 110.89 369.81 111.36 369.54 112.09
  C 369.27 112.86 368.16 112.79 367.97 112.00
  C 367.95 111.93 367.90 111.84 367.82 111.75
  C 367.61 111.50 367.35 111.39 367.03 111.42
  C 364.80 111.66 362.78 112.40 360.99 113.65
  C 360.93 113.70 360.86 113.73 360.79 113.74
  L 353.70 115.26
  C 352.98 115.41 352.93 115.70 353.54 116.11
  C 356.91 118.35 361.45 116.51 363.84 113.64
  C 364.05 113.38 364.43 113.35 364.68 113.57
  C 366.71 115.34 368.73 115.48 370.74 114.00
  C 372.10 116.06 373.41 118.03 374.68 119.91
  C 376.55 122.66 377.65 124.73 377.98 126.11
  C 379.93 134.09 370.34 139.05 363.68 139.69
  C 345.95 141.38 322.43 130.75 307.00 122.54
  L 308.28 121.17
  C 308.50 120.93 308.76 120.88 309.05 121.02
  L 309.75 121.36
  C 310.05 121.50 310.36 121.55 310.68 121.52
  C 312.46 121.34 314.13 121.65 315.69 122.46
  C 316.00 122.62 316.33 122.71 316.68 122.74
  L 317.82 122.82
  L 318.93 122.68
  C 321.45 124.13 324.33 124.61 327.57 124.11
  C 334.02 123.10 340.55 122.50 347.16 122.31
  C 347.96 122.28 348.36 121.33 347.82 120.74
  L 344.98 117.68
  C 344.77 117.44 344.43 117.36 344.13 117.47
  C 340.60 118.78 336.94 119.28 333.17 118.95
  C 332.75 118.92 332.43 118.72 332.20 118.36
  L 331.06 116.58
  C 330.88 116.31 330.55 116.18 330.23 116.26
  C 329.51 116.46 329.01 116.47 328.74 116.28
  L 302.10 110.32
  C 314.61 107.89 326.41 106.56 337.51 106.35
  C 347.28 106.16 357.09 107.08 366.94 109.10
  Z"
/>
<path fill="#f6b047" d="
  M 160.87 106.67
  C 162.43 106.68 163.79 107.65 164.95 109.58
  C 165.14 109.89 165.06 110.10 164.71 110.19
  L 160.42 111.34
  C 155.63 111.81 151.22 112.92 147.21 114.67
  C 144.03 112.20 142.17 113.05 141.62 117.20
  L 140.20 117.33
  L 139.81 116.10
  C 139.69 115.74 139.44 115.55 139.06 115.52
  C 137.30 115.41 136.28 116.66 136.01 119.29
  C 135.82 119.20 135.56 119.21 135.23 119.31
  C 134.88 119.27 134.55 119.09 134.26 118.76
  C 133.37 117.76 133.90 117.04 132.36 116.20
  L 135.48 114.34
  C 136.45 114.75 137.08 114.57 137.37 113.80
  L 160.87 106.67
  Z"
/>
<path fill="#ec4625" d="
  M 23.06 107.43
  L 34.20 120.89
  L 37.41 125.81
  C 34.51 123.22 31.46 121.74 28.26 121.35
  C 29.09 120.97 29.74 120.44 30.21 119.75
  C 30.40 119.48 30.36 119.11 30.11 118.89
  C 27.01 116.11 24.07 113.22 21.30 110.22
  C 20.38 109.22 20.00 108.30 20.15 107.46
  C 20.25 106.90 20.54 106.78 21.01 107.09
  C 21.76 107.58 22.45 107.69 23.06 107.43
  Z"
/>
<path fill="#fac4b2" d="
  M 496.91 107.37
  C 498.04 107.21 499.28 107.53 500.62 108.32
  C 500.91 108.49 501.08 108.73 501.14 109.06
  C 501.72 112.34 496.55 123.13 492.46 123.59
  C 492.09 123.64 491.77 123.53 491.50 123.26
  L 488.52 120.33
  C 491.37 117.95 492.87 116.03 494.02 112.23
  C 494.51 110.61 495.48 108.99 496.91 107.37
  Z"
/>
<path fill="#f6b047" d="
  M 377.59 107.37
  C 377.41 109.14 376.99 110.64 376.32 111.85
  C 375.79 112.27 375.20 112.49 374.55 112.52
  L 374.23 108.21
  L 377.59 107.37
  Z"
/>
<path fill="#d68e17" d="
  M 374.23 108.21
  L 374.55 112.52
  L 370.74 114.00
  C 368.73 115.48 366.71 115.34 364.68 113.57
  C 364.43 113.35 364.05 113.38 363.84 113.64
  C 361.45 116.51 356.91 118.35 353.54 116.11
  C 352.93 115.70 352.98 115.41 353.70 115.26
  L 360.79 113.74
  C 360.86 113.73 360.93 113.70 360.99 113.65
  C 362.78 112.40 364.80 111.66 367.03 111.42
  C 367.35 111.39 367.61 111.50 367.82 111.75
  C 367.90 111.84 367.95 111.93 367.97 112.00
  C 368.16 112.79 369.27 112.86 369.54 112.09
  C 369.81 111.36 369.80 110.89 369.52 110.70
  C 369.86 110.49 370.21 110.13 370.57 109.62
  C 370.92 109.61 371.40 109.44 372.00 109.09
  L 374.23 108.21
  Z"
/>
<path fill="#9a3713" d="
  M 232.32 115.15
  L 228.10 111.83
  C 227.91 111.68 227.96 111.37 228.19 111.30
  L 228.95 111.07
  C 229.14 111.01 229.35 111.08 229.46 111.24
  C 230.63 112.85 232.18 113.77 234.11 114.00
  C 234.60 114.05 234.70 114.28 234.43 114.68
  C 233.35 116.26 232.46 119.01 230.45 119.20
  C 230.05 119.24 229.97 119.10 230.21 118.78
  L 232.42 115.86
  C 232.62 115.59 232.59 115.36 232.32 115.15
  Z"
/>
<path fill="#f6b047" d="
  M 295.86 111.37
  C 299.59 113.15 303.37 114.75 307.18 116.16
  C 311.79 117.88 324.33 118.42 328.74 116.28
  C 329.01 116.47 329.51 116.46 330.23 116.26
  C 330.55 116.18 330.88 116.31 331.06 116.58
  L 332.20 118.36
  C 332.43 118.72 332.75 118.92 333.17 118.95
  C 336.94 119.28 340.60 118.78 344.13 117.47
  C 344.43 117.36 344.77 117.44 344.98 117.68
  L 347.82 120.74
  C 348.36 121.33 347.96 122.28 347.16 122.31
  C 340.55 122.50 334.02 123.10 327.57 124.11
  C 324.33 124.61 321.45 124.13 318.93 122.68
  L 321.79 119.71
  C 322.44 119.04 322.33 118.88 321.47 119.24
  C 320.00 119.86 318.78 121.05 317.82 122.82
  L 316.68 122.74
  C 316.33 122.71 316.00 122.62 315.69 122.46
  C 314.13 121.65 312.46 121.34 310.68 121.52
  C 310.36 121.55 310.05 121.50 309.75 121.36
  L 309.05 121.02
  C 308.76 120.88 308.50 120.93 308.28 121.17
  L 307.00 122.54
  C 302.83 120.83 299.04 118.53 295.61 115.66
  L 293.81 113.49
  C 293.57 111.70 294.25 111.00 295.86 111.37
  Z"
/>
<path fill="#0a5dd4" d="
  M 383.27 111.81
  C 394.28 115.41 404.27 120.93 413.26 128.37
  C 413.55 128.61 413.93 128.67 414.28 128.55
  C 417.01 127.62 418.62 128.54 419.13 131.30
  C 419.18 131.57 419.41 131.78 419.68 131.81
  C 423.71 132.22 427.26 133.75 430.34 136.40
  C 430.89 136.88 430.96 137.71 430.49 138.27
  L 425.16 144.56
  C 424.91 144.85 424.49 144.91 424.18 144.69
  C 420.70 142.24 418.39 138.98 417.25 134.91
  C 417.16 134.61 416.91 134.39 416.60 134.35
  C 414.29 134.06 413.19 132.69 413.30 130.23
  C 413.31 129.93 413.19 129.65 412.96 129.46
  C 403.79 121.81 393.57 116.21 382.30 112.68
  C 381.99 112.28 382.32 111.99 383.27 111.81
  Z"
/>
<path fill="#d68e17" d="
  M 147.21 114.67
  L 143.23 116.34
  C 142.93 116.46 142.83 116.85 143.04 117.10
  L 143.42 117.57
  C 143.52 117.70 143.39 117.88 143.23 117.82
  L 141.62 117.20
  C 142.17 113.05 144.03 112.20 147.21 114.67
  Z"
/>
<path fill="#0a5dd4" d="
  M 293.81 113.49
  L 295.61 115.66
  C 295.50 124.20 292.93 131.89 287.91 138.74
  C 285.78 141.55 283.37 143.85 280.66 145.63
  C 278.29 146.68 276.10 147.77 274.08 148.91
  C 273.87 149.03 273.73 149.17 273.67 149.34
  C 273.58 149.57 273.60 149.79 273.71 150.00
  L 273.19 149.94
  C 273.37 149.59 273.31 149.44 273.00 149.50
  C 267.37 150.59 262.06 151.22 257.05 151.39
  C 256.62 151.48 256.13 151.44 255.58 151.27
  C 254.03 150.02 251.94 149.38 249.31 149.33
  C 245.30 147.25 241.75 144.87 238.66 142.20
  L 234.85 137.19
  L 234.33 136.39
  C 234.12 136.06 234.21 135.87 234.60 135.81
  L 236.97 135.44
  L 240.06 136.32
  C 240.25 136.38 240.40 136.50 240.49 136.67
  L 242.67 140.77
  C 242.77 140.95 242.95 141.07 243.16 141.10
  L 245.78 141.46
  C 246.19 141.51 246.51 141.70 246.76 142.02
  L 249.16 145.08
  C 249.39 145.38 249.79 145.50 250.16 145.39
  C 252.71 144.60 254.89 145.14 256.68 147.01
  C 256.88 147.22 257.17 147.34 257.46 147.31
  C 260.35 147.04 261.80 145.86 264.72 147.24
  C 265.04 147.39 265.41 147.41 265.74 147.29
  C 266.87 146.90 267.90 146.33 268.84 145.58
  C 269.15 145.33 269.51 145.19 269.92 145.16
  L 274.04 144.90
  C 274.23 144.89 274.40 144.80 274.53 144.66
  L 277.30 141.61
  C 277.47 141.42 277.72 141.31 277.98 141.30
  C 280.80 141.29 282.45 139.85 282.93 137.00
  C 282.99 136.67 283.21 136.39 283.53 136.26
  C 285.90 135.31 287.20 133.57 287.44 131.05
  C 287.47 130.74 287.63 130.46 287.88 130.28
  C 289.57 129.04 290.87 127.49 291.79 125.62
  C 291.91 125.38 291.87 125.09 291.68 124.90
  L 290.02 123.24
  C 289.79 123.01 289.73 122.65 289.87 122.35
  C 291.07 119.84 291.50 117.23 291.16 114.50
  C 291.11 114.09 291.28 113.86 291.68 113.80
  L 293.81 113.49
  Z"
/>
<path fill="#d68e17" d="
  M 140.20 117.33
  L 136.01 119.29
  C 136.28 116.66 137.30 115.41 139.06 115.52
  C 139.44 115.55 139.69 115.74 139.81 116.10
  L 140.20 117.33
  Z"
/>
<path fill="#ee5c28" d="
  M 132.36 116.20
  C 133.90 117.04 133.37 117.76 134.26 118.76
  C 134.55 119.09 134.88 119.27 135.23 119.31
  C 134.60 119.66 133.04 120.32 130.56 121.31
  C 130.13 121.48 129.95 121.80 130.03 122.27
  C 130.04 122.38 130.03 122.47 129.99 122.56
  C 129.94 122.67 129.85 122.72 129.72 122.70
  L 126.78 122.29
  C 126.53 122.26 126.29 122.17 126.06 122.04
  C 122.93 120.22 120.38 124.41 119.08 126.93
  L 111.70 128.38
  C 110.95 126.73 109.71 125.73 107.98 125.37
  C 109.40 122.23 111.07 120.19 112.99 119.26
  L 115.98 120.07
  C 115.75 122.02 116.35 123.24 117.77 123.72
  C 118.10 123.83 118.46 123.73 118.68 123.46
  L 120.95 120.67
  C 125.12 119.81 128.93 118.32 132.36 116.20
  Z"
/>
<path fill="#ee5c28" d="
  M 106.81 118.79
  C 105.93 122.17 104.66 124.12 102.99 124.63
  C 86.78 123.71 71.29 123.29 56.49 129.98
  C 55.30 130.23 53.78 131.18 51.93 132.84
  C 48.61 134.08 45.57 136.95 42.81 141.46
  C 41.02 139.13 39.38 138.80 37.89 140.46
  C 37.60 140.79 37.11 140.85 36.74 140.60
  C 36.38 140.36 36.24 139.89 36.43 139.49
  C 37.06 138.14 37.00 137.35 36.26 137.10
  C 39.12 135.70 41.46 133.24 43.29 129.73
  L 47.01 127.12
  C 51.56 124.53 56.40 122.49 61.51 121.00
  C 76.20 116.71 90.83 116.82 106.81 118.79
  Z"
/>
<path fill="#9a3713" d="
  M 106.81 118.79
  L 112.99 119.26
  C 111.07 120.19 109.40 122.23 107.98 125.37
  C 107.53 125.31 107.13 125.43 106.77 125.74
  C 105.53 125.09 104.27 124.72 102.99 124.63
  C 104.66 124.12 105.93 122.17 106.81 118.79
  Z"
/>
<path fill="#d68e17" d="
  M 318.93 122.68
  L 317.82 122.82
  C 318.78 121.05 320.00 119.86 321.47 119.24
  C 322.33 118.88 322.44 119.04 321.79 119.71
  L 318.93 122.68
  Z"
/>
<path fill="#9a3713" d="
  M 115.98 120.07
  L 120.95 120.67
  L 118.68 123.46
  C 118.46 123.73 118.10 123.83 117.77 123.72
  C 116.35 123.24 115.75 122.02 115.98 120.07
  Z"
/>
<path fill="#9d164e" d="
  M 153.62 121.06
  L 177.04 127.12
  L 170.65 128.27
  C 168.70 127.38 166.34 126.94 163.57 126.96
  C 159.98 125.17 156.16 123.91 152.09 123.17
  C 152.28 121.95 152.79 121.25 153.62 121.06
  Z"
/>
<path fill="#f6b047" d="
  M 34.20 120.89
  L 47.01 127.12
  L 43.29 129.73
  L 37.41 125.81
  L 34.20 120.89
  Z"
/>
<path fill="#9a3713" d="
  M 130.03 122.27
  L 131.70 122.76
  C 129.71 125.18 131.23 127.06 130.18 128.95
  L 125.64 128.06
  C 126.62 126.82 126.65 125.72 125.73 124.77
  C 125.24 124.27 124.39 124.60 124.38 125.30
  L 124.32 127.97
  L 119.08 126.93
  C 120.38 124.41 122.93 120.22 126.06 122.04
  C 126.29 122.17 126.53 122.26 126.78 122.29
  L 129.72 122.70
  C 129.85 122.72 129.94 122.67 129.99 122.56
  C 130.03 122.47 130.04 122.38 130.03 122.27
  Z"
/>
<path fill="#ee5c28" d="
  M 131.70 122.76
  C 132.15 122.76 132.58 122.85 132.99 123.02
  C 133.11 125.21 132.68 127.32 131.69 129.36
  L 130.18 128.95
  C 131.23 127.06 129.71 125.18 131.70 122.76
  Z"
/>
<path fill="#9a3713" d="
  M 132.99 123.02
  L 150.45 125.74
  C 150.02 126.36 149.94 127.11 150.19 128.00
  C 150.35 128.59 150.64 128.66 151.05 128.21
  L 152.93 126.17
  C 153.11 125.98 153.39 125.93 153.62 126.05
  L 154.33 126.43
  C 154.65 126.59 154.74 127.00 154.52 127.28
  L 150.20 132.86
  C 149.81 132.15 149.16 131.78 148.25 131.75
  C 144.09 131.64 140.87 131.33 138.58 130.83
  C 139.12 129.44 139.30 128.04 139.11 126.63
  C 139.03 126.00 138.21 125.81 137.86 126.34
  C 137.09 127.49 136.90 128.89 137.29 130.53
  L 131.69 129.36
  C 132.68 127.32 133.11 125.21 132.99 123.02
  Z"
/>
<path fill="#ee5c28" d="
  M 163.57 126.96
  C 162.97 127.53 162.36 127.92 161.73 128.13
  C 161.40 128.24 161.13 128.15 160.94 127.87
  C 160.11 126.68 158.95 126.24 157.47 126.54
  C 157.07 126.62 156.92 126.86 157.01 127.26
  C 157.47 129.19 158.65 130.49 160.56 131.16
  C 160.88 131.28 161.19 131.26 161.49 131.09
  L 163.84 129.83
  C 164.13 129.68 164.41 129.68 164.68 129.84
  C 166.86 131.14 168.85 130.62 170.65 128.27
  L 177.04 127.12
  C 177.34 126.97 177.61 126.95 177.85 127.04
  C 178.16 127.15 178.27 127.54 178.06 127.79
  L 173.33 133.57
  C 173.14 133.80 172.90 133.91 172.60 133.90
  C 167.97 133.81 163.20 134.33 158.67 133.43
  C 156.10 132.92 153.79 133.38 151.74 134.81
  L 150.20 132.86
  L 154.52 127.28
  C 154.74 127.00 154.65 126.59 154.33 126.43
  L 153.62 126.05
  C 153.39 125.93 153.11 125.98 152.93 126.17
  L 151.05 128.21
  C 150.64 128.66 150.35 128.59 150.19 128.00
  C 149.94 127.11 150.02 126.36 150.45 125.74
  L 152.09 123.17
  C 156.16 123.91 159.98 125.17 163.57 126.96
  Z"
/>
<path fill="#ee5c28" d="
  M 125.64 128.06
  L 124.32 127.97
  L 124.38 125.30
  C 124.39 124.60 125.24 124.27 125.73 124.77
  C 126.65 125.72 126.62 126.82 125.64 128.06
  Z"
/>
<path fill="#d68e17" d="
  M 107.98 125.37
  C 109.71 125.73 110.95 126.73 111.70 128.38
  L 103.61 130.77
  C 101.32 130.08 99.74 129.30 98.85 128.43
  C 101.31 127.80 103.69 127.41 106.00 127.25
  C 106.63 127.20 106.88 126.70 106.77 125.74
  C 107.13 125.43 107.53 125.31 107.98 125.37
  Z"
/>
<path fill="#ee5c28" d="
  M 138.58 130.83
  L 137.29 130.53
  C 136.90 128.89 137.09 127.49 137.86 126.34
  C 138.21 125.81 139.03 126.00 139.11 126.63
  C 139.30 128.04 139.12 129.44 138.58 130.83
  Z"
/>
<path fill="#9a3713" d="
  M 163.57 126.96
  C 166.34 126.94 168.70 127.38 170.65 128.27
  C 168.85 130.62 166.86 131.14 164.68 129.84
  C 164.41 129.68 164.13 129.68 163.84 129.83
  L 161.49 131.09
  C 161.19 131.26 160.88 131.28 160.56 131.16
  C 158.65 130.49 157.47 129.19 157.01 127.26
  C 156.92 126.86 157.07 126.62 157.47 126.54
  C 158.95 126.24 160.11 126.68 160.94 127.87
  C 161.13 128.15 161.40 128.24 161.73 128.13
  C 162.36 127.92 162.97 127.53 163.57 126.96
  Z"
/>
<path fill="#f6b047" d="
  M 98.85 128.43
  C 99.74 129.30 101.32 130.08 103.61 130.77
  C 97.95 133.36 92.64 134.81 87.67 135.12
  C 78.49 135.69 71.19 137.91 61.94 135.29
  C 58.20 134.24 55.37 133.68 51.93 132.84
  C 53.78 131.18 55.30 130.23 56.49 129.98
  C 57.12 130.96 58.60 131.50 60.94 131.59
  C 66.87 131.83 72.80 132.09 78.73 132.38
  C 85.20 132.69 92.64 129.99 98.85 128.43
  Z"
/>
<path fill="#4b8f8e" d="
  M 231.36 130.30
  L 236.97 135.44
  L 234.60 135.81
  C 234.21 135.87 234.12 136.06 234.33 136.39
  L 234.85 137.19
  L 233.94 136.97
  C 233.59 136.88 233.27 136.94 232.98 137.15
  L 209.47 153.90
  C 209.25 154.06 209.18 154.35 209.32 154.59
  C 209.45 154.82 209.74 154.92 209.99 154.81
  L 238.66 142.20
  C 241.75 144.87 245.30 147.25 249.31 149.33
  L 245.49 179.75
  C 245.45 180.07 245.84 180.26 246.07 180.03
  C 246.93 179.16 247.55 178.09 247.94 176.80
  C 250.41 168.47 252.96 159.96 255.58 151.27
  C 256.13 151.44 256.62 151.48 257.05 151.39
  C 260.49 171.85 263.59 193.73 258.63 214.22
  C 256.55 222.79 245.25 235.78 236.72 225.02
  C 232.65 219.90 229.70 212.80 223.04 210.83
  C 207.25 206.17 196.01 196.61 186.41 183.07
  C 182.14 177.05 163.04 180.27 164.02 167.84
  C 165.83 145.14 214.22 137.85 231.94 135.27
  C 232.59 135.18 232.99 134.50 232.75 133.88
  L 231.36 130.30
  Z"
/>
<path fill="#d68e17" d="
  M 273.19 149.94
  L 273.71 150.00
  L 283.06 178.01
  C 283.16 178.31 283.59 178.27 283.64 177.96
  C 284.03 175.44 283.55 172.82 283.37 170.61
  C 282.71 162.30 281.81 153.98 280.66 145.63
  C 283.37 143.85 285.78 141.55 287.91 138.74
  L 319.47 153.53
  C 319.57 153.58 319.69 153.54 319.75 153.45
  C 319.81 153.36 319.79 153.24 319.71 153.17
  C 312.19 146.52 303.15 141.07 295.14 135.24
  C 294.60 134.85 294.94 134.00 295.60 134.08
  C 313.03 136.30 362.02 143.27 365.94 165.39
  C 368.10 177.58 351.05 177.41 344.00 181.67
  C 343.63 181.89 343.35 182.16 343.15 182.49
  C 333.31 198.07 320.26 205.89 302.77 211.43
  C 302.45 211.53 302.17 211.74 301.98 212.01
  C 297.52 218.21 290.46 232.99 280.53 226.93
  C 262.17 215.74 268.71 174.35 271.76 156.25
  C 272.21 153.58 272.68 151.48 273.19 149.94
  Z"
/>
<path fill="#fac4b2" d="
  M 36.26 137.10
  C 37.00 137.35 37.06 138.14 36.43 139.49
  C 36.24 139.89 36.38 140.36 36.74 140.60
  C 37.11 140.85 37.60 140.79 37.89 140.46
  C 39.38 138.80 41.02 139.13 42.81 141.46
  C 45.36 145.72 47.54 151.42 43.62 155.66
  C 43.37 155.93 43.07 156.01 42.73 155.88
  L 41.03 155.28
  C 40.72 155.04 40.52 154.60 40.43 153.97
  C 40.38 153.62 40.21 153.37 39.90 153.21
  C 39.10 152.79 38.81 152.24 39.04 151.55
  C 39.73 150.87 40.19 150.16 40.42 149.41
  L 39.04 149.17
  C 38.63 149.10 38.38 148.69 38.52 148.30
  L 40.91 141.40
  C 41.08 140.92 40.56 140.48 40.11 140.73
  L 37.81 142.00
  C 37.57 142.13 37.28 142.14 37.03 142.02
  C 36.00 141.52 35.21 141.45 34.65 141.81
  C 33.32 141.05 32.11 141.62 31.03 143.52
  C 31.14 144.43 30.51 144.73 29.15 144.40
  C 28.78 144.31 28.57 143.91 28.71 143.55
  L 29.29 142.10
  C 29.46 141.69 29.16 141.25 28.72 141.25
  L 28.47 141.25
  C 28.16 141.25 27.86 141.40 27.68 141.66
  C 27.13 142.43 26.42 142.84 25.55 142.89
  C 24.78 142.36 24.61 141.91 25.03 141.55
  C 26.95 139.93 33.85 134.88 36.26 137.10
  Z"
/>
<path fill="#ee5c28" d="
  M 40.42 149.41
  C 39.47 149.32 39.01 150.04 39.04 151.55
  C 38.81 152.24 39.10 152.79 39.90 153.21
  C 40.21 153.37 40.38 153.62 40.43 153.97
  C 40.52 154.60 40.72 155.04 41.03 155.28
  C 38.28 158.89 36.54 159.71 32.43 161.43
  C 32.03 161.60 31.76 161.48 31.62 161.07
  L 30.91 159.05
  C 30.71 158.47 29.93 158.39 29.61 158.91
  L 28.18 161.26
  C 28.00 161.56 27.57 161.59 27.36 161.31
  L 24.67 157.87
  C 24.48 157.62 24.44 157.34 24.55 157.05
  C 25.18 155.44 24.90 153.97 23.69 152.63
  C 23.44 152.35 23.16 152.33 22.87 152.56
  L 22.35 152.98
  C 21.69 153.52 20.72 152.91 20.92 152.08
  C 21.92 148.04 23.46 144.98 25.55 142.89
  C 26.42 142.84 27.13 142.43 27.68 141.66
  C 27.86 141.40 28.16 141.25 28.47 141.25
  L 28.72 141.25
  C 29.16 141.25 29.46 141.69 29.29 142.10
  L 28.71 143.55
  C 28.57 143.91 28.78 144.31 29.15 144.40
  C 30.51 144.73 31.14 144.43 31.03 143.52
  C 32.44 143.23 33.65 142.66 34.65 141.81
  C 35.21 141.45 36.00 141.52 37.03 142.02
  C 37.28 142.14 37.57 142.13 37.81 142.00
  L 40.11 140.73
  C 40.56 140.48 41.08 140.92 40.91 141.40
  L 38.52 148.30
  C 38.38 148.69 38.63 149.10 39.04 149.17
  L 40.42 149.41
  Z
  M 35.4732 146.2202
  C 35.15 145.83 34.07 146.20 33.0586 147.0452
  C 32.05 147.89 31.50 148.89 31.8268 149.2798
  C 32.15 149.67 33.23 149.30 34.2414 148.4548
  C 35.25 147.61 35.80 146.61 35.4732 146.2202
  Z
  M 24.24 151.69
  C 26.65 151.59 29.14 149.72 30.17 147.65
  C 30.32 147.35 30.24 147.17 29.91 147.11
  C 26.43 146.48 24.34 147.76 23.64 150.97
  C 23.55 151.35 23.85 151.71 24.24 151.69
  Z
  M 29.1900 157.2638
  C 29.84 157.64 31.15 156.59 32.1078 154.9300
  C 33.07 153.27 33.32 151.61 32.6700 151.2362
  C 32.02 150.86 30.71 151.91 29.7522 153.5700
  C 28.79 155.23 28.54 156.89 29.1900 157.2638
  Z
  M 35.35 155.38
  C 33.93 155.71 33.43 156.74 33.85 158.45
  C 33.96 158.91 34.25 159.08 34.71 158.96
  C 35.72 158.70 36.43 158.13 36.86 157.26
  C 37.35 156.25 36.45 155.12 35.35 155.38
  Z"
/>
</svg>
